<?xml version="1.0" standalone="no"?>
<!DOCTYPE svg PUBLIC "-//W3C//DTD SVG 20010904//EN"
 "http://www.w3.org/TR/2001/REC-SVG-20010904/DTD/svg10.dtd">
<svg version="1.0" xmlns="http://www.w3.org/2000/svg"
 width="125.000000pt" height="134.000000pt" viewBox="0 0 125.000000 134.000000"
 preserveAspectRatio="xMidYMid meet">
<metadata>
Created by potrace 1.16, written by Peter Selinger 2001-2019
</metadata>
<g transform="translate(0.000000,134.000000) scale(0.100000,-0.100000)"
fill="#000000" stroke="none">
<path d="M923 945 c-20 -14 -23 -25 -23 -90 0 -47 4 -77 12 -81 7 -5 -11 -13
-42 -20 -48 -11 -56 -11 -65 3 -35 54 -36 55 -112 48 -39 -4 -76 -11 -83 -15
-41 -25 53 -81 104 -62 l29 11 -21 -22 c-17 -18 -19 -26 -10 -35 9 -9 6 -12
-15 -12 -25 0 -127 -48 -127 -60 1 -3 15 -32 33 -65 29 -54 36 -60 72 -67 39
-7 41 -6 103 60 60 65 62 68 57 109 -6 40 -5 43 22 49 15 3 35 8 44 10 12 3
22 -11 38 -55 24 -66 56 -112 74 -106 7 2 24 6 39 9 17 4 29 16 36 36 7 19 18
30 30 30 11 0 27 11 36 25 9 14 23 25 31 25 28 0 36 36 25 107 -13 80 -37 127
-68 131 -12 2 -22 2 -22 0 0 -2 9 -32 20 -66 11 -35 20 -76 19 -90 -1 -15 -7
2 -15 36 -19 86 -51 142 -81 142 -27 0 -27 2 -8 -44 18 -42 49 -185 42 -192
-2 -3 -14 37 -26 88 -28 120 -56 172 -96 176 -17 1 -40 -4 -52 -13z"/>
<path d="M230 803 c-14 -3 -31 -10 -37 -15 -19 -15 -15 -150 6 -231 10 -37 14
-64 10 -60 -11 11 -36 114 -44 181 -6 42 -11 52 -25 52 -34 0 -36 -105 -5
-217 3 -10 -1 -4 -9 12 -8 17 -18 58 -21 93 -6 49 -11 62 -23 60 -30 -6 -36
-33 -23 -105 16 -89 43 -137 74 -129 12 3 28 -1 39 -11 11 -9 26 -13 40 -10
15 4 30 -1 45 -15 17 -16 29 -19 57 -14 49 9 59 34 54 122 -5 67 -3 73 16 78
38 10 46 7 46 -23 0 -18 11 -41 30 -61 29 -31 32 -32 88 -25 31 4 59 8 61 10
2 2 -10 23 -26 47 -23 35 -35 44 -63 46 -45 4 -65 22 -24 22 53 0 55 11 17 73
l-35 58 -24 -22 c-16 -15 -21 -26 -14 -33 17 -17 11 -24 -27 -30 -21 -4 -45
-9 -53 -12 -11 -2 -16 3 -17 18 -4 45 -62 150 -81 147 -4 -1 -18 -4 -32 -6z"/>
<path d="M505 461 c-29 -6 -30 -8 -42 -96 -18 -144 -20 -138 40 -182 63 -48
107 -71 127 -66 13 3 13 23 1 173 -8 94 -18 170 -21 170 -4 0 -12 -51 -17
-112 l-10 -113 -1 118 c-2 130 2 125 -77 108z"/>
<path d="M650 389 c0 -35 3 -108 7 -161 l6 -97 46 31 c25 17 47 32 48 33 5 3
-39 230 -45 237 -4 4 -19 10 -34 13 l-28 7 0 -63z"/>
</g>
</svg>
